<mxfile host="app.diagrams.net" agent="Mozilla/5.0 (Windows NT 10.0; Win64; x64; rv:135.0) Gecko/20100101 Firefox/135.0" version="26.0.16">
  <diagram id="C5RBs43oDa-KdzZeNtuy" name="Page-1">
    <mxGraphModel dx="1067" dy="740" grid="1" gridSize="10" guides="1" tooltips="1" connect="1" arrows="1" fold="1" page="1" pageScale="1" pageWidth="827" pageHeight="1169" math="0" shadow="0">
      <root>
        <mxCell id="WIyWlLk6GJQsqaUBKTNV-0" />
        <mxCell id="WIyWlLk6GJQsqaUBKTNV-1" parent="WIyWlLk6GJQsqaUBKTNV-0" />
        <mxCell id="BFSpF9VayfbNB3OxnIwD-4" value="User" style="swimlane;fontStyle=1;align=center;verticalAlign=top;childLayout=stackLayout;horizontal=1;startSize=26;horizontalStack=0;resizeParent=1;resizeParentMax=0;resizeLast=0;collapsible=1;marginBottom=0;whiteSpace=wrap;html=1;" vertex="1" parent="WIyWlLk6GJQsqaUBKTNV-1">
          <mxGeometry y="171.5" width="535" height="240" as="geometry" />
        </mxCell>
        <mxCell id="BFSpF9VayfbNB3OxnIwD-5" value="&lt;div&gt;+ id: int&lt;/div&gt;&lt;div&gt;+ email: string&lt;/div&gt;&lt;div&gt;+ ownRecipes: list&amp;lt;recipeId&amp;gt;&lt;/div&gt;&lt;div&gt;- password: string&lt;/div&gt;&lt;div&gt;- favoriteRecipes: list&amp;lt;recipeId&amp;gt;&lt;/div&gt;" style="text;strokeColor=none;fillColor=none;align=left;verticalAlign=top;spacingLeft=4;spacingRight=4;overflow=hidden;rotatable=0;points=[[0,0.5],[1,0.5]];portConstraint=eastwest;whiteSpace=wrap;html=1;" vertex="1" parent="BFSpF9VayfbNB3OxnIwD-4">
          <mxGeometry y="26" width="535" height="84" as="geometry" />
        </mxCell>
        <mxCell id="BFSpF9VayfbNB3OxnIwD-6" value="" style="line;strokeWidth=1;fillColor=none;align=left;verticalAlign=middle;spacingTop=-1;spacingLeft=3;spacingRight=3;rotatable=0;labelPosition=right;points=[];portConstraint=eastwest;strokeColor=inherit;" vertex="1" parent="BFSpF9VayfbNB3OxnIwD-4">
          <mxGeometry y="110" width="535" height="8" as="geometry" />
        </mxCell>
        <mxCell id="BFSpF9VayfbNB3OxnIwD-7" value="&lt;div&gt;+ addFavoriteRecipe(recipeId: int)&lt;/div&gt;&lt;div&gt;+ deleteFavoriteRecipe(recipeId: int)&lt;/div&gt;&lt;div&gt;+ commentRecipe(recipeId: int, commentText: String)&lt;/div&gt;&lt;div&gt;+ deleteComment(recipeId: int, commentId: int)&lt;/div&gt;&lt;div&gt;+ rateRecipe(recipeId: int, rateScore: int)&lt;/div&gt;&lt;div&gt;+ createRecipe(recipeName: String, recipeDescripton, recipeInstruction: String): Recipe&lt;/div&gt;&lt;div&gt;+ editRecipe(recipeId: int, recipeName: String, recipeDescripton, recipeInstruction: String): Recipe&lt;div&gt;&lt;br&gt;&lt;/div&gt;&lt;/div&gt;" style="text;strokeColor=none;fillColor=none;align=left;verticalAlign=top;spacingLeft=4;spacingRight=4;overflow=hidden;rotatable=0;points=[[0,0.5],[1,0.5]];portConstraint=eastwest;whiteSpace=wrap;html=1;" vertex="1" parent="BFSpF9VayfbNB3OxnIwD-4">
          <mxGeometry y="118" width="535" height="122" as="geometry" />
        </mxCell>
        <mxCell id="BFSpF9VayfbNB3OxnIwD-8" value="Admin" style="swimlane;fontStyle=1;align=center;verticalAlign=top;childLayout=stackLayout;horizontal=1;startSize=26;horizontalStack=0;resizeParent=1;resizeParentMax=0;resizeLast=0;collapsible=1;marginBottom=0;whiteSpace=wrap;html=1;" vertex="1" parent="WIyWlLk6GJQsqaUBKTNV-1">
          <mxGeometry x="147.5" y="476.5" width="240" height="80" as="geometry" />
        </mxCell>
        <mxCell id="BFSpF9VayfbNB3OxnIwD-10" value="" style="line;strokeWidth=1;fillColor=none;align=left;verticalAlign=middle;spacingTop=-1;spacingLeft=3;spacingRight=3;rotatable=0;labelPosition=right;points=[];portConstraint=eastwest;strokeColor=inherit;" vertex="1" parent="BFSpF9VayfbNB3OxnIwD-8">
          <mxGeometry y="26" width="240" height="8" as="geometry" />
        </mxCell>
        <mxCell id="BFSpF9VayfbNB3OxnIwD-11" value="&lt;div&gt;+ recipeModerate(isCorrect: bool)&lt;/div&gt;&lt;div&gt;+ blockUser(userId: int)&lt;/div&gt;" style="text;strokeColor=none;fillColor=none;align=left;verticalAlign=top;spacingLeft=4;spacingRight=4;overflow=hidden;rotatable=0;points=[[0,0.5],[1,0.5]];portConstraint=eastwest;whiteSpace=wrap;html=1;" vertex="1" parent="BFSpF9VayfbNB3OxnIwD-8">
          <mxGeometry y="34" width="240" height="46" as="geometry" />
        </mxCell>
        <mxCell id="BFSpF9VayfbNB3OxnIwD-12" value="" style="endArrow=block;endFill=0;endSize=12;html=1;rounded=0;" edge="1" parent="WIyWlLk6GJQsqaUBKTNV-1" source="BFSpF9VayfbNB3OxnIwD-4" target="BFSpF9VayfbNB3OxnIwD-15">
          <mxGeometry width="160" relative="1" as="geometry">
            <mxPoint x="195" y="231.5" as="sourcePoint" />
            <mxPoint x="155" y="31.5" as="targetPoint" />
          </mxGeometry>
        </mxCell>
        <mxCell id="BFSpF9VayfbNB3OxnIwD-13" value="" style="endArrow=block;endFill=0;endSize=12;html=1;rounded=0;" edge="1" parent="WIyWlLk6GJQsqaUBKTNV-1" source="BFSpF9VayfbNB3OxnIwD-8" target="BFSpF9VayfbNB3OxnIwD-4">
          <mxGeometry width="160" relative="1" as="geometry">
            <mxPoint x="715" y="361.5" as="sourcePoint" />
            <mxPoint x="525" y="361.5" as="targetPoint" />
          </mxGeometry>
        </mxCell>
        <mxCell id="BFSpF9VayfbNB3OxnIwD-15" value="Guest" style="swimlane;fontStyle=1;align=center;verticalAlign=top;childLayout=stackLayout;horizontal=1;startSize=26;horizontalStack=0;resizeParent=1;resizeParentMax=0;resizeLast=0;collapsible=1;marginBottom=0;whiteSpace=wrap;html=1;" vertex="1" parent="WIyWlLk6GJQsqaUBKTNV-1">
          <mxGeometry x="147.5" y="11" width="240" height="90" as="geometry" />
        </mxCell>
        <mxCell id="BFSpF9VayfbNB3OxnIwD-17" value="" style="line;strokeWidth=1;fillColor=none;align=left;verticalAlign=middle;spacingTop=-1;spacingLeft=3;spacingRight=3;rotatable=0;labelPosition=right;points=[];portConstraint=eastwest;strokeColor=inherit;" vertex="1" parent="BFSpF9VayfbNB3OxnIwD-15">
          <mxGeometry y="26" width="240" height="8" as="geometry" />
        </mxCell>
        <mxCell id="BFSpF9VayfbNB3OxnIwD-18" value="&lt;div&gt;# browseRecipe(recipeId: int)&lt;/div&gt;&lt;div&gt;# browseRecipesList(recipesId: list&amp;lt;int&amp;gt;)&lt;/div&gt;&lt;div&gt;# searchRecipe(searchText: string)&lt;/div&gt;" style="text;strokeColor=none;fillColor=none;align=left;verticalAlign=top;spacingLeft=4;spacingRight=4;overflow=hidden;rotatable=0;points=[[0,0.5],[1,0.5]];portConstraint=eastwest;whiteSpace=wrap;html=1;" vertex="1" parent="BFSpF9VayfbNB3OxnIwD-15">
          <mxGeometry y="34" width="240" height="56" as="geometry" />
        </mxCell>
        <mxCell id="BFSpF9VayfbNB3OxnIwD-19" value="&lt;p style=&quot;margin:0px;margin-top:4px;text-align:center;&quot;&gt;&lt;i&gt;&amp;lt;&amp;lt;Interface&amp;gt;&amp;gt;&lt;/i&gt;&lt;br&gt;&lt;b&gt;AuthenticationService&lt;/b&gt;&lt;/p&gt;&lt;hr size=&quot;1&quot; style=&quot;border-style:solid;&quot;&gt;&lt;p style=&quot;margin:0px;margin-left:4px;&quot;&gt;+ register(User)&lt;br&gt;+ login(email: string, password: string): User&lt;/p&gt;&lt;p style=&quot;margin:0px;margin-left:4px;&quot;&gt;+ logout()&lt;/p&gt;&lt;div&gt;&lt;br&gt;&lt;/div&gt;&lt;div&gt;&lt;br&gt;&lt;/div&gt;" style="verticalAlign=top;align=left;overflow=fill;html=1;whiteSpace=wrap;" vertex="1" parent="WIyWlLk6GJQsqaUBKTNV-1">
          <mxGeometry x="490" y="5.5" width="250" height="101" as="geometry" />
        </mxCell>
        <mxCell id="BFSpF9VayfbNB3OxnIwD-20" value="" style="endArrow=block;dashed=1;endFill=1;endSize=12;html=1;rounded=0;" edge="1" parent="WIyWlLk6GJQsqaUBKTNV-1" source="BFSpF9VayfbNB3OxnIwD-15" target="BFSpF9VayfbNB3OxnIwD-19">
          <mxGeometry width="160" relative="1" as="geometry">
            <mxPoint x="384" y="181.5" as="sourcePoint" />
            <mxPoint x="544" y="181.5" as="targetPoint" />
          </mxGeometry>
        </mxCell>
        <mxCell id="BFSpF9VayfbNB3OxnIwD-25" value="Recipe" style="swimlane;fontStyle=1;align=center;verticalAlign=top;childLayout=stackLayout;horizontal=1;startSize=26;horizontalStack=0;resizeParent=1;resizeParentMax=0;resizeLast=0;collapsible=1;marginBottom=0;whiteSpace=wrap;html=1;" vertex="1" parent="WIyWlLk6GJQsqaUBKTNV-1">
          <mxGeometry x="657" y="171.5" width="170" height="158" as="geometry" />
        </mxCell>
        <mxCell id="BFSpF9VayfbNB3OxnIwD-26" value="&lt;div&gt;+ id: int&lt;/div&gt;&lt;div&gt;+ name: string&lt;/div&gt;&lt;div&gt;+ description: string&lt;/div&gt;&lt;div&gt;+ instruction: string&lt;/div&gt;&lt;div&gt;+ ingredients: list&amp;lt;string&amp;gt;&lt;/div&gt;&lt;div&gt;+ authorId: int&lt;/div&gt;&lt;div&gt;+ ratingScores: list&amp;lt;int&amp;gt;&lt;/div&gt;&lt;div&gt;+ comments: list&amp;lt;Comment&amp;gt;&lt;/div&gt;" style="text;strokeColor=none;fillColor=none;align=left;verticalAlign=top;spacingLeft=4;spacingRight=4;overflow=hidden;rotatable=0;points=[[0,0.5],[1,0.5]];portConstraint=eastwest;whiteSpace=wrap;html=1;" vertex="1" parent="BFSpF9VayfbNB3OxnIwD-25">
          <mxGeometry y="26" width="170" height="124" as="geometry" />
        </mxCell>
        <mxCell id="BFSpF9VayfbNB3OxnIwD-27" value="" style="line;strokeWidth=1;fillColor=none;align=left;verticalAlign=middle;spacingTop=-1;spacingLeft=3;spacingRight=3;rotatable=0;labelPosition=right;points=[];portConstraint=eastwest;strokeColor=inherit;" vertex="1" parent="BFSpF9VayfbNB3OxnIwD-25">
          <mxGeometry y="150" width="170" height="8" as="geometry" />
        </mxCell>
        <mxCell id="BFSpF9VayfbNB3OxnIwD-29" value="Comment" style="swimlane;fontStyle=1;align=center;verticalAlign=top;childLayout=stackLayout;horizontal=1;startSize=26;horizontalStack=0;resizeParent=1;resizeParentMax=0;resizeLast=0;collapsible=1;marginBottom=0;whiteSpace=wrap;html=1;" vertex="1" parent="WIyWlLk6GJQsqaUBKTNV-1">
          <mxGeometry x="609" y="410" width="100" height="98" as="geometry" />
        </mxCell>
        <mxCell id="BFSpF9VayfbNB3OxnIwD-30" value="&lt;div&gt;+ id: int&lt;/div&gt;&lt;div&gt;+ text: string&lt;/div&gt;&lt;div&gt;+ authorId: int&lt;/div&gt;&lt;div&gt;+ recipeId: int&lt;/div&gt;" style="text;strokeColor=none;fillColor=none;align=left;verticalAlign=top;spacingLeft=4;spacingRight=4;overflow=hidden;rotatable=0;points=[[0,0.5],[1,0.5]];portConstraint=eastwest;whiteSpace=wrap;html=1;" vertex="1" parent="BFSpF9VayfbNB3OxnIwD-29">
          <mxGeometry y="26" width="100" height="64" as="geometry" />
        </mxCell>
        <mxCell id="BFSpF9VayfbNB3OxnIwD-31" value="" style="line;strokeWidth=1;fillColor=none;align=left;verticalAlign=middle;spacingTop=-1;spacingLeft=3;spacingRight=3;rotatable=0;labelPosition=right;points=[];portConstraint=eastwest;strokeColor=inherit;" vertex="1" parent="BFSpF9VayfbNB3OxnIwD-29">
          <mxGeometry y="90" width="100" height="8" as="geometry" />
        </mxCell>
        <mxCell id="BFSpF9VayfbNB3OxnIwD-32" value="&lt;div&gt;Rating&lt;/div&gt;" style="swimlane;fontStyle=1;align=center;verticalAlign=top;childLayout=stackLayout;horizontal=1;startSize=26;horizontalStack=0;resizeParent=1;resizeParentMax=0;resizeLast=0;collapsible=1;marginBottom=0;whiteSpace=wrap;html=1;" vertex="1" parent="WIyWlLk6GJQsqaUBKTNV-1">
          <mxGeometry x="727" y="410" width="100" height="98" as="geometry" />
        </mxCell>
        <mxCell id="BFSpF9VayfbNB3OxnIwD-33" value="&lt;div&gt;+ id: int&lt;/div&gt;&lt;div&gt;+ score: int&lt;/div&gt;&lt;div&gt;+ userrId: int&lt;/div&gt;&lt;div&gt;+ recipeId: int&lt;/div&gt;" style="text;strokeColor=none;fillColor=none;align=left;verticalAlign=top;spacingLeft=4;spacingRight=4;overflow=hidden;rotatable=0;points=[[0,0.5],[1,0.5]];portConstraint=eastwest;whiteSpace=wrap;html=1;" vertex="1" parent="BFSpF9VayfbNB3OxnIwD-32">
          <mxGeometry y="26" width="100" height="64" as="geometry" />
        </mxCell>
        <mxCell id="BFSpF9VayfbNB3OxnIwD-34" value="" style="line;strokeWidth=1;fillColor=none;align=left;verticalAlign=middle;spacingTop=-1;spacingLeft=3;spacingRight=3;rotatable=0;labelPosition=right;points=[];portConstraint=eastwest;strokeColor=inherit;" vertex="1" parent="BFSpF9VayfbNB3OxnIwD-32">
          <mxGeometry y="90" width="100" height="8" as="geometry" />
        </mxCell>
        <mxCell id="BFSpF9VayfbNB3OxnIwD-37" value="(&lt;span lang=&quot;en&quot; class=&quot;Y2IQFc&quot;&gt;authorship&lt;/span&gt;)" style="endArrow=none;html=1;endSize=12;startArrow=diamondThin;startSize=14;startFill=1;edgeStyle=orthogonalEdgeStyle;align=left;verticalAlign=bottom;rounded=0;exitX=1;exitY=0.63;exitDx=0;exitDy=0;exitPerimeter=0;" edge="1" parent="WIyWlLk6GJQsqaUBKTNV-1" source="BFSpF9VayfbNB3OxnIwD-5" target="BFSpF9VayfbNB3OxnIwD-25">
          <mxGeometry x="-0.5905" relative="1" as="geometry">
            <mxPoint x="670" y="390" as="sourcePoint" />
            <mxPoint x="510" y="390" as="targetPoint" />
            <mxPoint as="offset" />
          </mxGeometry>
        </mxCell>
        <mxCell id="BFSpF9VayfbNB3OxnIwD-41" value="" style="endArrow=none;html=1;edgeStyle=orthogonalEdgeStyle;rounded=0;entryX=0.703;entryY=0.004;entryDx=0;entryDy=0;entryPerimeter=0;startArrow=diamondThin;startFill=1;strokeWidth=1;startSize=14;" edge="1" parent="WIyWlLk6GJQsqaUBKTNV-1" source="BFSpF9VayfbNB3OxnIwD-25" target="BFSpF9VayfbNB3OxnIwD-29">
          <mxGeometry relative="1" as="geometry">
            <mxPoint x="679" y="330" as="sourcePoint" />
            <mxPoint x="650" y="550" as="targetPoint" />
            <Array as="points">
              <mxPoint x="679" y="370" />
            </Array>
          </mxGeometry>
        </mxCell>
        <mxCell id="BFSpF9VayfbNB3OxnIwD-42" value="1" style="edgeLabel;resizable=0;html=1;align=left;verticalAlign=bottom;" connectable="0" vertex="1" parent="BFSpF9VayfbNB3OxnIwD-41">
          <mxGeometry x="-1" relative="1" as="geometry">
            <mxPoint x="-15" y="21" as="offset" />
          </mxGeometry>
        </mxCell>
        <mxCell id="BFSpF9VayfbNB3OxnIwD-43" value="*" style="edgeLabel;resizable=0;html=1;align=right;verticalAlign=bottom;" connectable="0" vertex="1" parent="BFSpF9VayfbNB3OxnIwD-41">
          <mxGeometry x="1" relative="1" as="geometry">
            <mxPoint x="-9" as="offset" />
          </mxGeometry>
        </mxCell>
        <mxCell id="BFSpF9VayfbNB3OxnIwD-46" value="" style="endArrow=none;html=1;edgeStyle=orthogonalEdgeStyle;rounded=0;exitX=1.001;exitY=0.931;exitDx=0;exitDy=0;exitPerimeter=0;" edge="1" parent="WIyWlLk6GJQsqaUBKTNV-1">
          <mxGeometry relative="1" as="geometry">
            <mxPoint x="535.5349999999999" y="300.00399999999996" as="sourcePoint" />
            <mxPoint x="657" y="300.0058823529412" as="targetPoint" />
            <Array as="points">
              <mxPoint x="630" y="300.3" />
              <mxPoint x="630" y="300.3" />
            </Array>
          </mxGeometry>
        </mxCell>
        <mxCell id="BFSpF9VayfbNB3OxnIwD-49" value="" style="endArrow=none;html=1;edgeStyle=orthogonalEdgeStyle;rounded=0;entryX=0.53;entryY=0.003;entryDx=0;entryDy=0;entryPerimeter=0;startArrow=diamondThin;startFill=1;startSize=14;" edge="1" parent="WIyWlLk6GJQsqaUBKTNV-1" target="BFSpF9VayfbNB3OxnIwD-32">
          <mxGeometry relative="1" as="geometry">
            <mxPoint x="780" y="329" as="sourcePoint" />
            <mxPoint x="689" y="420" as="targetPoint" />
            <Array as="points">
              <mxPoint x="780" y="329" />
            </Array>
          </mxGeometry>
        </mxCell>
        <mxCell id="BFSpF9VayfbNB3OxnIwD-50" value="1" style="edgeLabel;resizable=0;html=1;align=left;verticalAlign=bottom;" connectable="0" vertex="1" parent="BFSpF9VayfbNB3OxnIwD-49">
          <mxGeometry x="-1" relative="1" as="geometry">
            <mxPoint x="-21" y="21" as="offset" />
          </mxGeometry>
        </mxCell>
        <mxCell id="BFSpF9VayfbNB3OxnIwD-51" value="*" style="edgeLabel;resizable=0;html=1;align=right;verticalAlign=bottom;" connectable="0" vertex="1" parent="BFSpF9VayfbNB3OxnIwD-49">
          <mxGeometry x="1" relative="1" as="geometry">
            <mxPoint x="-9" as="offset" />
          </mxGeometry>
        </mxCell>
      </root>
    </mxGraphModel>
  </diagram>
</mxfile>
